<?xml version="1.0" encoding="UTF-8" standalone="no"?>
<!-- Svg Vector Icons : http://www.onlinewebfonts.com/icon -->

<svg
   xmlns:dc="http://purl.org/dc/elements/1.1/"
   xmlns:cc="http://creativecommons.org/ns#"
   xmlns:rdf="http://www.w3.org/1999/02/22-rdf-syntax-ns#"
   xmlns:svg="http://www.w3.org/2000/svg"
   xmlns="http://www.w3.org/2000/svg"
   xmlns:sodipodi="http://sodipodi.sourceforge.net/DTD/sodipodi-0.dtd"
   xmlns:inkscape="http://www.inkscape.org/namespaces/inkscape"
   version="1.1"
   x="0px"
   y="0px"
   viewBox="0 0 1000 1000"
   enable-background="new 0 0 1000 1000"
   xml:space="preserve"
   id="svg4529"
   sodipodi:docname="542a86325bbf94db27b31a74556e5f03.svg"
   inkscape:version="0.92.1 r15371"><defs
     id="defs4533" /><sodipodi:namedview
     pagecolor="#ffffff"
     bordercolor="#666666"
     borderopacity="1"
     objecttolerance="10"
     gridtolerance="10"
     guidetolerance="10"
     inkscape:pageopacity="0"
     inkscape:pageshadow="2"
     inkscape:window-width="2239"
     inkscape:window-height="1568"
     id="namedview4531"
     showgrid="false"
     inkscape:zoom="1.0069201"
     inkscape:cx="541.54805"
     inkscape:cy="553.06633"
     inkscape:window-x="0"
     inkscape:window-y="0"
     inkscape:window-maximized="0"
     inkscape:current-layer="svg4529" /><metadata
     id="metadata4485"> Svg Vector Icons : http://www.onlinewebfonts.com/icon <rdf:RDF><cc:Work
     rdf:about=""><dc:format>image/svg+xml</dc:format><dc:type
       rdf:resource="http://purl.org/dc/dcmitype/StillImage" /></cc:Work></rdf:RDF></metadata><g
     id="g4527"
     style="fill:#ffffff;fill-opacity:1"><g
       id="g4495"
       style="fill:#ffffff;fill-opacity:1"><g
         id="g4493"
         style="fill:#ffffff;fill-opacity:1"><path
           d="M454.9,843.1c-37.4-5-16.3,30.5,4,42.7c20.3,12.2,29.7,17.9,29.7,17.9S492.3,848.2,454.9,843.1z"
           id="path4487"
           style="fill:#ffffff;fill-opacity:1" /><path
           d="M545.2,843.1c-37.4,5-33.7,60.5-33.7,60.5s9.4-5.7,29.7-17.9C561.5,873.6,582.6,838.1,545.2,843.1z"
           id="path4489"
           style="fill:#ffffff;fill-opacity:1" /><path
           d="M900.3,366.8l-14.7-12.2C883,352.5,821,302,739,302c-10,0-20,0.8-29.8,2.3c-27,4.2-43.8,8.8-58.6,13.6l-6.5-24.2c3-18.8,20.6-105.4,98.6-221.2L784.8,10l-69.4,29.8c-1.7,0.7-41.7,18.1-86.2,56.3c-58.3,50-97.5,112.9-113.6,182.2L500,305.6l-15.6-27.3C468.3,209,429,146.1,370.7,96.1c-44.5-38.2-84.5-55.6-86.2-56.3L215.2,10l42.2,62.6c77.5,115,95.4,202.3,98.6,221.2l-6.5,24.1c-14.8-4.9-31.6-9.5-58.6-13.6C281,302.8,271,302,261,302c-82,0-144,50.5-146.6,52.6l-14.7,12.2l9.9,16.4c20.3,33.8,50.4,58.4,89.4,73.1c27.5,10.4,58.7,15.7,92.8,15.7c7,0,13.6-0.2,19.4-0.6c-9.5,60.2-23.6,196.1,24.7,282.8c28.7,51.6,32.3,87.2,35,113.3c2.7,26.8,5.3,52.1,34.3,69.9c13.4,8.2,22,16.1,30.3,23.7c15.3,14,31.1,28.4,64.1,29l0.4,0l0.4,0c33-0.5,48.8-15,64.1-29c8.3-7.6,17-15.5,30.3-23.7c29-17.8,31.6-43.1,34.3-69.9c2.6-26,6.3-61.7,35-113.3c48.3-86.7,34.2-222.6,24.7-282.8c5.9,0.3,12.4,0.6,19.4,0.6l0,0c34.1,0,65.4-5.3,92.8-15.6c39-14.7,69.1-39.3,89.4-73.1L900.3,366.8z M655.8,131.9c-32.6,63.3-46.7,112.5-52.6,139.1l-38.5-3.9C580.9,216,611.5,170.7,655.8,131.9z M344.3,132.1c34.5,30.2,71.7,74.5,91,135l-38.5,3.9C390.9,244.4,376.8,195.3,344.3,132.1z M291.8,427.5c-51.3,0-86.1-13.1-109.8-30.1c35.5,3.8,74.7,11.1,108.9,25.1c4,1.6,7.6,3.2,11,4.8C298.6,427.5,295.3,427.5,291.8,427.5z M687.8,383.2c-37.6,16.1-53.3,32.4-55,34.2l0.2,0.2l-0.4-0.1l7.2,33.1c0.1,0.6,3.9,18.3,7.5,45.5c-26.9,12.5-75.6,41.8-82.3,92.6l-9.2,65.1l44,6.2l3.8-26.8c6.1,2.3,12.8,3.5,19.8,3.5l0,0c9.8,0,19.6-2.3,28.7-6.7c-3.1,37.1-10.9,73.6-27,102.4C592,792.1,587.7,834.8,584.9,863c-2.6,25.2-3.9,30.7-13.3,36.4c-17,10.4-28.1,20.6-37.1,28.8c-13.5,12.3-18.6,17-34.5,17.3c-15.9-0.3-21-5-34.5-17.3c-9-8.2-20.1-18.4-37.1-28.8c-9.4-5.8-10.7-11.2-13.3-36.4c-2.9-28.2-7.2-70.8-40.4-130.4c-16.3-29.2-24.1-66.3-27.1-103.9c9.9,5.3,20.7,8.2,31.5,8.2c7,0,13.7-1.2,19.8-3.5l3.8,26.8l44-6.2l-9.2-65.2c-6.8-52.4-58.7-82-84.8-93.7c3.6-26.5,7.2-43.8,7.3-44.3l7.2-33l-0.7,0.1l0.4-0.4c-1.7-1.8-17.4-18.1-55-34.2c-30.1-12.9-65.3-22.1-105.4-27.7c16.2-5.3,34.6-9.1,54.3-9.1c7.7,0,15.5,0.6,23,1.7c31.3,4.8,45.8,9.9,64.2,16.2c3,1,6.1,2.1,9.4,3.2l22.4,7.6l16.1-59.5l55.3-5.7l48.6,85l48.6-85l55.3,5.7l16.1,59.5l22.4-7.6c3.2-1.1,6.3-2.2,9.4-3.2c18.4-6.4,32.8-11.4,64.2-16.2c7.5-1.2,15.2-1.7,23-1.7c19.6,0,38.1,3.8,54.3,9.1C753.2,361.1,717.9,370.4,687.8,383.2z M647,571.7c-0.9,4.7-4,9.5-8.4,13.3c-4.6,3.9-10.2,6.3-15.1,6.3c-1.2,0-4.1-0.2-5.4-1.7c-1.5-1.7-1-4.9-0.8-6.2c0.9-4.7,4-9.5,8.4-13.3c4.6-3.9,10.2-6.3,15.1-6.3c1.2,0,4.1,0.2,5.4,1.7C647.7,567.3,647.2,570.5,647,571.7z M356.5,565.6c1.3-1.6,4.2-1.7,5.4-1.7c4.8,0,10.5,2.3,15.1,6.3c4.4,3.8,7.5,8.6,8.4,13.3c0.3,1.3,0.7,4.5-0.8,6.2c-1.3,1.6-4.2,1.7-5.4,1.7c-4.8,0-10.5-2.3-15.1-6.3c-4.4-3.8-7.5-8.6-8.4-13.3C355.5,570.5,355.1,567.3,356.5,565.6z M708.2,427.5c-3.5,0-6.9-0.1-10.1-0.2c3.4-1.6,7-3.2,10.9-4.8c34.2-14,73.4-21.4,109-25.1C794.3,414.5,759.5,427.5,708.2,427.5z"
           id="path4491"
           style="fill:#ffffff;fill-opacity:1" /></g></g><g
       id="g4497"
       style="fill:#ffffff;fill-opacity:1" /><g
       id="g4499"
       style="fill:#ffffff;fill-opacity:1" /><g
       id="g4501"
       style="fill:#ffffff;fill-opacity:1" /><g
       id="g4503"
       style="fill:#ffffff;fill-opacity:1" /><g
       id="g4505"
       style="fill:#ffffff;fill-opacity:1" /><g
       id="g4507"
       style="fill:#ffffff;fill-opacity:1" /><g
       id="g4509"
       style="fill:#ffffff;fill-opacity:1" /><g
       id="g4511"
       style="fill:#ffffff;fill-opacity:1" /><g
       id="g4513"
       style="fill:#ffffff;fill-opacity:1" /><g
       id="g4515"
       style="fill:#ffffff;fill-opacity:1" /><g
       id="g4517"
       style="fill:#ffffff;fill-opacity:1" /><g
       id="g4519"
       style="fill:#ffffff;fill-opacity:1" /><g
       id="g4521"
       style="fill:#ffffff;fill-opacity:1" /><g
       id="g4523"
       style="fill:#ffffff;fill-opacity:1" /><g
       id="g4525"
       style="fill:#ffffff;fill-opacity:1" /></g></svg>